<svg xmlns="http://www.w3.org/2000/svg" width="983.812" height="975.582" viewBox="0 0 983.812 975.582">
  <g id="broken-web-link-svgrepo-com" transform="translate(0.001 -4.114)">
    <path id="Trazado_146902" data-name="Trazado 146902" d="M208.854,257.755a98.73,98.73,0,0,0-71.1,67.9l-133.6,452.5a100.415,100.415,0,0,0,67.9,124.8l245.7,72.5a103.88,103.88,0,0,0,128.8-70l25.9-87.6,10.3-35a22.732,22.732,0,0,0-5.4-22.5,23.343,23.343,0,0,0-22.2-6.6,22.782,22.782,0,0,0-9.3,4.7,76.327,76.327,0,0,1-29.9,15.4,78.118,78.118,0,0,1-32.4.7,30.9,30.9,0,0,0-35.1,21.7l-15.8,53.4-201.6-59.5,119.1-403.5,134.8,39.8a31.388,31.388,0,0,0,16.1.4,30.972,30.972,0,0,0,22.3-21.3l17.9-60.6a30.976,30.976,0,0,0-20.9-38.4l-160.3-47.3A94.787,94.787,0,0,0,208.854,257.755Z" fill="#6afe99"/>
    <path id="Trazado_146903" data-name="Trazado 146903" d="M911.755,80.855l-245.7-72.5a103.378,103.378,0,0,0-53.8-1.3,105.82,105.82,0,0,0-46.4,25.1,103.166,103.166,0,0,0-28.6,46.3l-25.9,87.6-10.3,35a22.729,22.729,0,0,0,5.4,22.5,23.344,23.344,0,0,0,22.2,6.6,22.788,22.788,0,0,0,9.3-4.7,76.336,76.336,0,0,1,29.9-15.4,78.122,78.122,0,0,1,32.4-.7,30.9,30.9,0,0,0,35.1-21.7l15.8-53.4,201.6,59.5-119.1,403.6-134.9-39.8a31.389,31.389,0,0,0-16.1-.4,30.976,30.976,0,0,0-22.3,21.3l-17.9,60.6a30.976,30.976,0,0,0,20.9,38.4l160.3,47.3a98.615,98.615,0,0,0,122.4-66.7l133.6-452.6a100.086,100.086,0,0,0-67.9-124.6Z" fill="#6afe99"/>
    <path id="Trazado_146904" data-name="Trazado 146904" d="M685.354,979.255a44.94,44.94,0,0,0,35.9-72l-117-155.5a44.99,44.99,0,1,0-71.9,54.1l117,155.5A44.931,44.931,0,0,0,685.354,979.255Z" fill="#6afe99"/>
    <path id="Trazado_146905" data-name="Trazado 146905" d="M419.555,249.255a45.054,45.054,0,0,0,34-74.5l-132.6-153.3a45.019,45.019,0,0,0-68.1,58.9l132.6,153.4A45.062,45.062,0,0,0,419.555,249.255Z" fill="#6afe99"/>
  </g>
</svg>
